<svg width="78" height="47" viewBox="0 0 78 47" fill="none" xmlns="http://www.w3.org/2000/svg">
<path d="M19.1347 44.2406H19.4403V45.3729L20.4892 44.2406H20.8691L19.7128 45.4719L20.9021 46.8813H20.5139L19.5063 45.6738L19.4403 45.7451V46.8813H19.1347V45.7451L19.0686 45.6738L18.061 46.8813H17.6729L18.8621 45.4719L17.7059 44.2406H18.0858L19.1347 45.3729V44.2406ZM23.6423 46.8813V44.8662L21.7263 47.0001V44.2406H22.0318V46.2637L23.9479 44.1298V46.8813H23.6423ZM25.3517 44.2406H27.0283V46.8813H26.7227V44.5178H25.6573V45.9351C25.6573 46.0591 25.656 46.1529 25.6532 46.2162C25.6505 46.2769 25.6284 46.364 25.5871 46.4775C25.5486 46.5884 25.4895 46.6781 25.4096 46.7467C25.2857 46.8523 25.1287 46.9051 24.9388 46.9051C24.8948 46.9051 24.8397 46.8972 24.7736 46.8813V46.6042C24.8287 46.62 24.8796 46.628 24.9264 46.628C25.0338 46.628 25.1233 46.5936 25.1948 46.525C25.2444 46.4775 25.2815 46.4102 25.3063 46.3231C25.3311 46.2333 25.3449 46.1581 25.3476 46.0974C25.3504 46.0368 25.3517 45.943 25.3517 45.8164V44.2406ZM30.4537 46.5369C30.1784 46.7982 29.8398 46.9289 29.4379 46.9289C29.0359 46.9289 28.6959 46.7982 28.4179 46.5369C28.1425 46.2756 28.0049 45.951 28.0049 45.563C28.0049 45.1723 28.1439 44.8477 28.422 44.589C28.7 44.3277 29.0386 44.1971 29.4379 44.1971C29.837 44.1971 30.1756 44.3277 30.4537 44.589C30.7317 44.8477 30.8708 45.1723 30.8708 45.563C30.8708 45.951 30.7317 46.2756 30.4537 46.5369ZM30.2307 44.791C30.0132 44.5798 29.7489 44.4742 29.4379 44.4742C29.1267 44.4742 28.8624 44.5798 28.645 44.791C28.4275 45.0021 28.3188 45.2594 28.3188 45.563C28.3188 45.8665 28.4275 46.1239 28.645 46.335C28.8624 46.5461 29.1267 46.6517 29.4379 46.6517C29.7489 46.6517 30.0132 46.5461 30.2307 46.335C30.4481 46.1239 30.557 45.8665 30.557 45.563C30.557 45.2594 30.4481 45.0021 30.2307 44.791ZM33.7611 46.8813V44.8662L31.845 47.0001V44.2406H32.1506V46.2637L34.0667 44.1298V46.8813H33.7611ZM32.3158 43.6428L32.6049 43.5518C32.6214 43.6019 32.6462 43.6441 32.6792 43.6785C32.715 43.7101 32.7535 43.7326 32.7948 43.7458C32.8389 43.7563 32.8719 43.7643 32.8939 43.7695C32.916 43.7722 32.9367 43.7735 32.9559 43.7735C32.9752 43.7735 32.9958 43.7722 33.0178 43.7695C33.0399 43.7643 33.0715 43.7563 33.1128 43.7458C33.1569 43.7326 33.1954 43.7101 33.2284 43.6785C33.2642 43.6441 33.2904 43.6019 33.3069 43.5518L33.5959 43.6428C33.585 43.6718 33.5685 43.7022 33.5464 43.7339C33.5272 43.7656 33.4942 43.8064 33.4473 43.8566C33.4005 43.9068 33.3344 43.9477 33.2491 43.9793C33.1638 44.011 33.066 44.0268 32.9559 44.0268C32.8458 44.0268 32.7481 44.011 32.6627 43.9793C32.5774 43.9477 32.5113 43.9068 32.4645 43.8566C32.4177 43.8064 32.3833 43.7656 32.3612 43.7339C32.342 43.7022 32.3269 43.6718 32.3158 43.6428ZM36.8722 44.2406V45.3729L38.045 44.2406H38.4579L37.1695 45.4719L38.4992 46.8813H38.078L36.9506 45.6699L36.8722 45.7451V46.8813H36.5666V44.2406H36.8722ZM41.4533 46.5369C41.178 46.7982 40.8394 46.9289 40.4375 46.9289C40.0355 46.9289 39.6955 46.7982 39.4175 46.5369C39.1422 46.2756 39.0045 45.951 39.0045 45.563C39.0045 45.1723 39.1435 44.8477 39.4216 44.589C39.6996 44.3277 40.0383 44.1971 40.4375 44.1971C40.8366 44.1971 41.1752 44.3277 41.4533 44.589C41.7313 44.8477 41.8704 45.1723 41.8704 45.563C41.8704 45.951 41.7313 46.2756 41.4533 46.5369ZM41.2303 44.791C41.0128 44.5798 40.7485 44.4742 40.4375 44.4742C40.1263 44.4742 39.862 44.5798 39.6446 44.791C39.4271 45.0021 39.3184 45.2594 39.3184 45.563C39.3184 45.8665 39.4271 46.1239 39.6446 46.335C39.862 46.5461 40.1263 46.6517 40.4375 46.6517C40.7485 46.6517 41.0128 46.5461 41.2303 46.335C41.4478 46.1239 41.5566 45.8665 41.5566 45.563C41.5566 45.2594 41.4478 45.0021 41.2303 44.791ZM43.0635 46.8813H42.7497L43.2081 44.0942L44.2652 46.3231L45.343 44.0902L45.7725 46.8813H45.4586L45.1985 45.0443L44.2611 46.9922L43.3361 45.0443L43.0635 46.8813ZM46.8226 44.2406H48.846V46.8813H48.5405V44.5178H47.1282V46.8813H46.8226V44.2406ZM50.2505 44.2406H51.9271V46.8813H51.6215V44.5178H50.5561V45.9351C50.5561 46.0591 50.5547 46.1529 50.5519 46.2162C50.5491 46.2769 50.5272 46.364 50.4859 46.4775C50.4474 46.5884 50.3881 46.6781 50.3083 46.7467C50.1844 46.8523 50.0275 46.9051 49.8375 46.9051C49.7934 46.9051 49.7384 46.8972 49.6724 46.8813V46.6042C49.7274 46.62 49.7784 46.628 49.8251 46.628C49.9325 46.628 50.022 46.5936 50.0936 46.525C50.1431 46.4775 50.1803 46.4102 50.2051 46.3231C50.2298 46.2333 50.2436 46.1581 50.2464 46.0974C50.2491 46.0368 50.2505 45.943 50.2505 45.8164V44.2406ZM54.481 44.2406V44.5178H53.3578V45.3017H54.448V45.5788H53.3578V46.6042H54.481V46.8813H53.0522V44.2406H54.481ZM55.7629 44.2406V45.3729L56.9357 44.2406H57.3487L56.0603 45.4719L57.3899 46.8813H56.9687L55.8414 45.6699L55.7629 45.7451V46.8813H55.4574V44.2406H55.7629ZM60.1944 44.4584V44.8226C60.0842 44.717 59.9645 44.6353 59.8351 44.5772C59.6782 44.5086 59.5198 44.4742 59.3602 44.4742C59.0436 44.4742 58.7793 44.5811 58.5674 44.7949C58.3581 45.006 58.2535 45.266 58.2535 45.5748C58.2535 45.9074 58.3677 46.17 58.5963 46.3627C58.8275 46.5554 59.0836 46.6517 59.3644 46.6517C59.5405 46.6517 59.7112 46.6108 59.8764 46.529C59.992 46.4736 60.098 46.3996 60.1944 46.3073V46.6715C59.9438 46.843 59.6672 46.9289 59.3644 46.9289C58.9569 46.9289 58.6169 46.7982 58.3444 46.5369C58.0745 46.2756 57.9397 45.9536 57.9397 45.5709C57.9397 45.1777 58.076 44.8503 58.3485 44.589C58.6237 44.3277 58.9679 44.1971 59.3809 44.1971C59.6837 44.1971 59.9549 44.2842 60.1944 44.4584Z" fill="white"/>
<path d="M49.2538 28.0972V0H28.7461V28.0972H33.8714V4.93985H44.1284V28.0972H49.2538Z" fill="url(#paint0_linear_192_62406)"/>
<path d="M68.4183 11.7627H63.293V28.0969H68.4183V11.7627Z" fill="url(#paint1_linear_192_62406)"/>
<path d="M14.7073 11.7627H9.58203V28.0969H14.7073V11.7627Z" fill="url(#paint2_linear_192_62406)"/>
<path d="M24.2893 5.88184H19.1641V28.0975H24.2893V5.88184Z" fill="url(#paint3_linear_192_62406)"/>
<path d="M5.1253 17.6445H0V28.0973H5.1253V17.6445Z" fill="url(#paint4_linear_192_62406)"/>
<path d="M58.8363 5.88184H53.7109V28.0975H58.8363V5.88184Z" fill="url(#paint5_linear_192_62406)"/>
<path d="M78.0003 17.6445H72.875V28.0973H78.0003V17.6445Z" fill="url(#paint6_linear_192_62406)"/>
<path d="M42.1772 33.5742H43.8923L45.7932 37.6595L47.6984 33.5742H49.4134V39.4172H48.0992V38.0207L48.2356 34.9467L46.2478 39.4172H45.3304L43.3468 34.9507L43.4831 38.0207V39.4172H42.1772V33.5742Z" fill="white"/>
<path d="M51.6524 33.5742H52.9624V35.8456H53.6278L55.5205 33.5742H57.1239L54.8923 36.4034L57.3429 39.4172H55.7684L53.8468 37.0937H52.9624V39.4172H51.6524V33.5742Z" fill="white"/>
<path d="M58.8298 33.5742H61.5201C61.9279 33.5742 62.2902 33.6237 62.607 33.7227C62.9266 33.8217 63.1952 33.9595 63.4129 34.136C63.6333 34.3099 63.8013 34.5186 63.917 34.7621C64.0327 35.0029 64.0906 35.2664 64.0906 35.5527C64.0906 35.8336 64.0327 36.0891 63.917 36.3191C63.8013 36.5492 63.6333 36.7472 63.4129 36.9131C63.1952 37.0763 62.9266 37.2034 62.607 37.2943C62.2902 37.3826 61.9279 37.4267 61.5201 37.4267H60.1399V39.4172H58.8298V33.5742ZM61.5201 36.3633C61.7406 36.3633 61.9293 36.3432 62.0863 36.3031C62.2461 36.263 62.3756 36.2068 62.4748 36.1345C62.5767 36.0623 62.6511 35.978 62.6979 35.8817C62.7448 35.7827 62.7682 35.6757 62.7682 35.5607C62.7682 35.4376 62.7448 35.3212 62.6979 35.2115C62.6511 35.0992 62.5767 35.0015 62.4748 34.9186C62.3756 34.833 62.2461 34.7648 62.0863 34.7139C61.9293 34.6631 61.7406 34.6377 61.5201 34.6377H60.1399V36.3633H61.5201Z" fill="white"/>
<path d="M20.5318 39.589H14.0425V38.453L17.2761 36.0547C17.5079 35.8829 17.7028 35.7216 17.861 35.5708C18.0192 35.4201 18.1461 35.2798 18.2418 35.1501C18.3411 35.0203 18.411 34.9011 18.4515 34.7924C18.4956 34.6837 18.5177 34.5856 18.5177 34.4979C18.5177 34.1788 18.4055 33.9422 18.1811 33.7879C17.9567 33.6336 17.6329 33.5565 17.2099 33.5565C16.9671 33.5565 16.7537 33.5863 16.5698 33.6459C16.3858 33.702 16.2313 33.7809 16.1063 33.8826C15.9849 33.9807 15.8929 34.0999 15.8304 34.2402C15.7678 34.3769 15.7365 34.5242 15.7365 34.682H14.048C14.048 34.3419 14.1197 34.0228 14.2632 33.7248C14.4067 33.4232 14.6145 33.162 14.8868 32.9411C15.1627 32.7167 15.4974 32.5397 15.8911 32.4099C16.2847 32.2802 16.7316 32.2153 17.232 32.2153C17.7065 32.2153 18.1277 32.2627 18.4956 32.3573C18.8635 32.452 19.1725 32.5905 19.4227 32.7728C19.6765 32.9516 19.8678 33.1725 19.9965 33.4355C20.129 33.6985 20.1952 34 20.1952 34.3401C20.1952 35.392 19.5073 36.3212 18.1314 37.1276L16.3656 38.2479H20.5318V39.589Z" fill="white"/>
<path d="M22.7435 34.8082C22.7435 34.4681 22.8189 34.142 22.9697 33.83C23.1242 33.5179 23.3357 33.2427 23.6043 33.0042C23.8728 32.7623 24.1911 32.5712 24.5589 32.431C24.9305 32.2872 25.3315 32.2153 25.7619 32.2153C26.2181 32.2153 26.6393 32.282 27.0255 32.4152C27.4118 32.5484 27.7429 32.743 28.0188 32.999C28.2984 33.2549 28.5154 33.5687 28.6699 33.9404C28.8281 34.3121 28.9072 34.7363 28.9072 35.2132V36.933C28.9072 37.3503 28.8208 37.7289 28.6479 38.069C28.475 38.4056 28.234 38.6949 27.925 38.9368C27.6197 39.1753 27.2555 39.3611 26.8324 39.4943C26.413 39.6241 25.9569 39.6889 25.4639 39.6889C25.1512 39.6889 24.8404 39.6591 24.5313 39.5995C24.226 39.5399 23.928 39.4628 23.6374 39.3681L23.9243 38.1216C24.123 38.1812 24.3309 38.2338 24.5479 38.2794C24.7649 38.325 25.0059 38.3478 25.2708 38.3478C25.5761 38.3478 25.8502 38.318 26.093 38.2584C26.3358 38.1988 26.5418 38.1146 26.711 38.0059C26.8802 37.8937 27.009 37.7587 27.0973 37.601C27.1892 37.4397 27.2352 37.2591 27.2352 37.0592V36.8015C27.0035 36.9698 26.7441 37.0978 26.4572 37.1855C26.1702 37.2696 25.8649 37.3117 25.5412 37.3117C25.1071 37.3117 24.7171 37.2538 24.3713 37.1381C24.0255 37.0224 23.7312 36.8559 23.4884 36.6385C23.2493 36.4211 23.0654 36.1581 22.9366 35.8496C22.8078 35.541 22.7435 35.1939 22.7435 34.8082ZM25.7784 33.5565C25.5798 33.5565 25.3959 33.5968 25.2266 33.6774C25.0611 33.7546 24.9176 33.8545 24.7962 33.9772C24.6785 34.0999 24.5865 34.2349 24.5203 34.3822C24.4541 34.5295 24.421 34.6715 24.421 34.8082C24.421 34.9976 24.4523 35.1694 24.5148 35.3236C24.5773 35.4779 24.6693 35.6111 24.7907 35.7233C24.9121 35.832 25.0611 35.9179 25.2377 35.9811C25.4179 36.0407 25.6239 36.0705 25.8557 36.0705C26.2015 36.0705 26.4884 36.0266 26.7165 35.939C26.9446 35.8478 27.1175 35.7374 27.2352 35.6076V34.9923C27.2352 34.7433 27.2003 34.5295 27.1304 34.3506C27.0642 34.1683 26.9667 34.0193 26.8379 33.9036C26.7128 33.7844 26.5602 33.6967 26.3799 33.6406C26.1997 33.5845 25.9992 33.5565 25.7784 33.5565Z" fill="white"/>
<path d="M34.5677 39.6889C34.1299 39.6889 33.7216 39.6451 33.3427 39.5574C32.9638 39.4698 32.6345 39.3383 32.355 39.163C32.079 38.9877 31.862 38.7685 31.7038 38.5056C31.5456 38.2426 31.4665 37.9358 31.4665 37.5852C31.4665 37.1749 31.5898 36.8243 31.8362 36.5333C32.0827 36.2388 32.4175 36.0074 32.8405 35.8391C32.4727 35.6708 32.1857 35.4551 31.9797 35.1922C31.7737 34.9257 31.6707 34.6171 31.6707 34.2665C31.6707 33.9299 31.7424 33.6336 31.8859 33.3777C32.0331 33.1217 32.2336 32.9078 32.4874 32.736C32.7449 32.5642 33.0502 32.4345 33.4034 32.3468C33.7566 32.2592 34.1428 32.2153 34.5622 32.2153C34.9853 32.2153 35.3734 32.2592 35.7265 32.3468C36.0797 32.4345 36.3832 32.5642 36.637 32.736C36.8945 32.9078 37.095 33.1217 37.2385 33.3777C37.382 33.6336 37.4537 33.9299 37.4537 34.2665C37.4537 34.6171 37.3507 34.9274 37.1447 35.1974C36.9387 35.4639 36.6517 35.6778 36.2839 35.8391C36.7032 36.0074 37.0362 36.2388 37.2826 36.5333C37.5291 36.8278 37.6524 37.1784 37.6524 37.5852C37.6524 37.9358 37.5733 38.2426 37.4151 38.5056C37.2606 38.7685 37.0454 38.9877 36.7695 39.163C36.4935 39.3383 36.168 39.4698 35.7927 39.5574C35.4175 39.6451 35.0092 39.6889 34.5677 39.6889ZM34.5512 36.5386C34.3415 36.5386 34.1502 36.5578 33.9773 36.5964C33.8044 36.635 33.6572 36.6928 33.5358 36.77C33.4144 36.8436 33.3206 36.9365 33.2544 37.0487C33.1882 37.1609 33.1551 37.2889 33.1551 37.4327C33.1551 37.5764 33.1882 37.7044 33.2544 37.8166C33.3206 37.9288 33.4144 38.0252 33.5358 38.1059C33.6609 38.183 33.8099 38.2426 33.9828 38.2847C34.1557 38.3268 34.3507 38.3478 34.5677 38.3478C34.7848 38.3478 34.9797 38.3268 35.1526 38.2847C35.3255 38.2426 35.4727 38.183 35.5941 38.1059C35.7155 38.0252 35.8075 37.9288 35.87 37.8166C35.9362 37.7044 35.9693 37.5764 35.9693 37.4327C35.9693 37.2889 35.9344 37.1609 35.8645 37.0487C35.7983 36.9365 35.7026 36.8436 35.5775 36.77C35.4561 36.6928 35.3072 36.635 35.1306 36.5964C34.9577 36.5578 34.7645 36.5386 34.5512 36.5386ZM34.5622 33.5565C34.187 33.5565 33.8927 33.6266 33.6793 33.7669C33.4659 33.9036 33.3593 34.1035 33.3593 34.3664C33.3593 34.6189 33.4659 34.8222 33.6793 34.9765C33.8963 35.1273 34.1925 35.2027 34.5677 35.2027C34.9466 35.2027 35.2409 35.1273 35.4506 34.9765C35.664 34.8222 35.7707 34.6189 35.7707 34.3664C35.7707 34.114 35.664 33.9159 35.4506 33.7721C35.2373 33.6284 34.9411 33.5565 34.5622 33.5565Z" fill="white"/>
<defs>
<linearGradient id="paint0_linear_192_62406" x1="-0.000295913" y1="2.90831" x2="80.0164" y2="31.5649" gradientUnits="userSpaceOnUse">
<stop stop-color="#704710"/>
<stop offset="0.328125" stop-color="#CB992F"/>
<stop offset="0.411458" stop-color="#FAC73B"/>
<stop offset="0.635417" stop-color="#FAC73B"/>
<stop offset="0.71875" stop-color="#E5B336"/>
<stop offset="1" stop-color="#704710"/>
</linearGradient>
<linearGradient id="paint1_linear_192_62406" x1="-3.81011e-05" y1="2.90804" x2="80.0167" y2="31.5646" gradientUnits="userSpaceOnUse">
<stop stop-color="#704710"/>
<stop offset="0.328125" stop-color="#CB992F"/>
<stop offset="0.411458" stop-color="#FAC73B"/>
<stop offset="0.635417" stop-color="#FAC73B"/>
<stop offset="0.71875" stop-color="#E5B336"/>
<stop offset="1" stop-color="#704710"/>
</linearGradient>
<linearGradient id="paint2_linear_192_62406" x1="-0.000105024" y1="2.90804" x2="80.0166" y2="31.5646" gradientUnits="userSpaceOnUse">
<stop stop-color="#704710"/>
<stop offset="0.328125" stop-color="#CB992F"/>
<stop offset="0.411458" stop-color="#FAC73B"/>
<stop offset="0.635417" stop-color="#FAC73B"/>
<stop offset="0.71875" stop-color="#E5B336"/>
<stop offset="1" stop-color="#704710"/>
</linearGradient>
<linearGradient id="paint3_linear_192_62406" x1="-0.000229531" y1="2.90866" x2="80.0165" y2="31.5653" gradientUnits="userSpaceOnUse">
<stop stop-color="#704710"/>
<stop offset="0.328125" stop-color="#CB992F"/>
<stop offset="0.411458" stop-color="#FAC73B"/>
<stop offset="0.635417" stop-color="#FAC73B"/>
<stop offset="0.71875" stop-color="#E5B336"/>
<stop offset="1" stop-color="#704710"/>
</linearGradient>
<linearGradient id="paint4_linear_192_62406" x1="-6.22061e-07" y1="2.9078" x2="80.0167" y2="31.5644" gradientUnits="userSpaceOnUse">
<stop stop-color="#704710"/>
<stop offset="0.328125" stop-color="#CB992F"/>
<stop offset="0.411458" stop-color="#FAC73B"/>
<stop offset="0.635417" stop-color="#FAC73B"/>
<stop offset="0.71875" stop-color="#E5B336"/>
<stop offset="1" stop-color="#704710"/>
</linearGradient>
<linearGradient id="paint5_linear_192_62406" x1="0.000127257" y1="2.90866" x2="80.0168" y2="31.5653" gradientUnits="userSpaceOnUse">
<stop stop-color="#704710"/>
<stop offset="0.328125" stop-color="#CB992F"/>
<stop offset="0.411458" stop-color="#FAC73B"/>
<stop offset="0.635417" stop-color="#FAC73B"/>
<stop offset="0.71875" stop-color="#E5B336"/>
<stop offset="1" stop-color="#704710"/>
</linearGradient>
<linearGradient id="paint6_linear_192_62406" x1="-0.000100357" y1="2.9078" x2="80.0166" y2="31.5644" gradientUnits="userSpaceOnUse">
<stop stop-color="#704710"/>
<stop offset="0.328125" stop-color="#CB992F"/>
<stop offset="0.411458" stop-color="#FAC73B"/>
<stop offset="0.635417" stop-color="#FAC73B"/>
<stop offset="0.71875" stop-color="#E5B336"/>
<stop offset="1" stop-color="#704710"/>
</linearGradient>
</defs>
</svg>
