<svg width="70" height="43" viewBox="0 0 70 43" fill="none" xmlns="http://www.w3.org/2000/svg">
<path d="M44.2021 25.9994V0H25.7978V25.9994H30.3975V4.57104H39.6025V25.9994H44.2021Z" fill="url(#paint0_linear_269_60935)"/>
<path d="M61.4009 10.8848H56.8012V25.9995H61.4009V10.8848Z" fill="url(#paint1_linear_269_60935)"/>
<path d="M8.59912 10.8848H13.1987V25.9995H8.59912V10.8848Z" fill="url(#paint2_linear_269_60935)"/>
<path d="M21.7978 5.44247H17.1982V25.9995H21.7978V5.44247Z" fill="url(#paint3_linear_269_60935)"/>
<path d="M0 16.3277H4.59963V26H0V16.3277Z" fill="url(#paint4_linear_269_60935)"/>
<path d="M52.8018 5.44247H48.2021V25.9995H52.8018V5.44247Z" fill="url(#paint5_linear_269_60935)"/>
<path d="M65.4003 16.3277H70V26H65.4003V16.3277Z" fill="url(#paint6_linear_269_60935)"/>
<path d="M18.8348 35.9824H13V34.9066L15.9075 32.6356C16.1159 32.4729 16.2912 32.3202 16.4334 32.1774C16.5756 32.0347 16.6897 31.9019 16.7757 31.779C16.8651 31.6562 16.9279 31.5433 16.9643 31.4403C17.004 31.3374 17.0238 31.2445 17.0238 31.1614C17.0238 30.8593 16.9229 30.6352 16.7212 30.4891C16.5194 30.343 16.2283 30.27 15.8479 30.27C15.6296 30.27 15.4378 30.2982 15.2724 30.3546C15.107 30.4078 14.9681 30.4825 14.8556 30.5788C14.7465 30.6717 14.6638 30.7846 14.6075 30.9174C14.5513 31.0469 14.5232 31.1863 14.5232 31.3358H13.005C13.005 31.0137 13.0695 30.7116 13.1985 30.4293C13.3275 30.1438 13.5143 29.8965 13.7591 29.6873C14.0072 29.4748 14.3082 29.3071 14.6621 29.1843C15.016 29.0614 15.4179 29 15.8678 29C16.2945 29 16.6732 29.0448 17.004 29.1345C17.3347 29.2241 17.6126 29.3553 17.8375 29.5279C18.0657 29.6972 18.2378 29.9064 18.3535 30.1554C18.4726 30.4044 18.5321 30.69 18.5321 31.012C18.5321 32.0081 17.9136 32.8879 16.6765 33.6516L15.0888 34.7124H18.8348V35.9824Z" fill="#262626"/>
<path fill-rule="evenodd" clip-rule="evenodd" d="M20.8234 31.4553C20.8234 31.1332 20.8912 30.8244 21.0268 30.5289C21.1657 30.2335 21.3559 29.9728 21.5974 29.747C21.8388 29.518 22.125 29.337 22.4557 29.2042C22.7898 29.0681 23.1504 29 23.5374 29C23.9475 29 24.3262 29.0631 24.6736 29.1893C25.0209 29.3154 25.3186 29.4997 25.5666 29.7421C25.818 29.9844 26.0132 30.2816 26.1521 30.6335C26.2943 30.9855 26.3654 31.3872 26.3654 31.8388V33.4673C26.3654 33.8624 26.2877 34.221 26.1322 34.5431C25.9768 34.8618 25.7601 35.1357 25.4823 35.3648C25.2077 35.5906 24.8803 35.7666 24.4999 35.8927C24.1228 36.0156 23.7127 36.077 23.2694 36.077C22.9883 36.077 22.7088 36.0488 22.4309 35.9923C22.1564 35.9359 21.8885 35.8628 21.6272 35.7732L21.8852 34.5929C22.0638 34.6493 22.2507 34.6991 22.4458 34.7423C22.641 34.7854 22.8576 34.807 23.0958 34.807C23.3703 34.807 23.6167 34.7788 23.835 34.7224C24.0534 34.6659 24.2386 34.5862 24.3907 34.4833C24.5429 34.3771 24.6587 34.2492 24.7381 34.0998C24.8207 33.9471 24.8621 33.7761 24.8621 33.5868V33.3428C24.6537 33.5022 24.4205 33.6234 24.1625 33.7064C23.9045 33.7861 23.63 33.8259 23.3389 33.8259C22.9486 33.8259 22.598 33.7711 22.287 33.6616C21.9761 33.552 21.7115 33.3943 21.4932 33.1884C21.2782 32.9826 21.1128 32.7336 20.997 32.4414C20.8813 32.1492 20.8234 31.8205 20.8234 31.4553ZM23.5522 30.27C23.3736 30.27 23.2082 30.3082 23.0561 30.3845C22.9072 30.4576 22.7782 30.5522 22.6691 30.6684C22.5632 30.7846 22.4805 30.9124 22.421 31.0519C22.3615 31.1913 22.3317 31.3258 22.3317 31.4553C22.3317 31.6346 22.3598 31.7973 22.416 31.9434C22.4723 32.0894 22.555 32.2156 22.6641 32.3219C22.7733 32.4248 22.9072 32.5061 23.066 32.5659C23.2281 32.6223 23.4133 32.6506 23.6217 32.6506C23.9326 32.6506 24.1906 32.6091 24.3957 32.526C24.6008 32.4397 24.7562 32.3351 24.8621 32.2123V31.6296C24.8621 31.3939 24.8307 31.1913 24.7678 31.022C24.7083 30.8493 24.6206 30.7082 24.5049 30.5987C24.3924 30.4858 24.2551 30.4028 24.093 30.3497C23.931 30.2965 23.7507 30.27 23.5522 30.27Z" fill="#262626"/>
<path fill-rule="evenodd" clip-rule="evenodd" d="M30.3535 35.9525C30.6942 36.0355 31.0614 36.077 31.455 36.077C31.8519 36.077 32.2191 36.0355 32.5565 35.9525C32.8939 35.8695 33.1866 35.745 33.4347 35.579C33.6827 35.413 33.8762 35.2054 34.0152 34.9564C34.1574 34.7074 34.2285 34.4169 34.2285 34.0849C34.2285 33.6997 34.1177 33.3677 33.8961 33.0888C33.6745 32.8099 33.3751 32.5908 32.9981 32.4314C33.3288 32.2787 33.5868 32.0762 33.7721 31.8238C33.9573 31.5682 34.0499 31.2743 34.0499 30.9423C34.0499 30.6236 33.9854 30.343 33.8564 30.1006C33.7274 29.8583 33.5471 29.6557 33.3156 29.493C33.0874 29.3304 32.8145 29.2075 32.4969 29.1245C32.1794 29.0415 31.8304 29 31.45 29C31.073 29 30.7257 29.0415 30.4081 29.1245C30.0906 29.2075 29.816 29.3304 29.5845 29.493C29.3563 29.6557 29.176 29.8583 29.0437 30.1006C28.9147 30.343 28.8502 30.6236 28.8502 30.9423C28.8502 31.2743 28.9428 31.5665 29.128 31.8188C29.3133 32.0679 29.5713 32.2721 29.902 32.4314C29.5217 32.5908 29.2207 32.8099 28.999 33.0888C28.7774 33.3644 28.6666 33.6964 28.6666 34.0849C28.6666 34.4169 28.7377 34.7074 28.88 34.9564C29.0222 35.2054 29.2173 35.413 29.4654 35.579C29.7168 35.745 30.0128 35.8695 30.3535 35.9525ZM30.9241 33.1486C31.0796 33.1121 31.2516 33.0938 31.4401 33.0938C31.632 33.0938 31.8056 33.1121 31.9611 33.1486C32.1199 33.1851 32.2538 33.2399 32.363 33.3129C32.4754 33.3827 32.5614 33.4706 32.621 33.5769C32.6838 33.6831 32.7152 33.8043 32.7152 33.9405C32.7152 34.0766 32.6855 34.1978 32.6259 34.304C32.5697 34.4103 32.487 34.5016 32.3779 34.5779C32.2687 34.651 32.1364 34.7074 31.9809 34.7473C31.8255 34.7871 31.6502 34.807 31.455 34.807C31.2599 34.807 31.0845 34.7871 30.9291 34.7473C30.7736 34.7074 30.6397 34.651 30.5272 34.5779C30.418 34.5016 30.3337 34.4103 30.2742 34.304C30.2146 34.1978 30.1848 34.0766 30.1848 33.9405C30.1848 33.8043 30.2146 33.6831 30.2742 33.5769C30.3337 33.4706 30.418 33.3827 30.5272 33.3129C30.6363 33.2399 30.7687 33.1851 30.9241 33.1486ZM30.6562 30.4692C30.848 30.3364 31.1127 30.27 31.45 30.27C31.7907 30.27 32.057 30.338 32.2489 30.4742C32.4407 30.6103 32.5366 30.7979 32.5366 31.0369C32.5366 31.276 32.4407 31.4686 32.2489 31.6147C32.0603 31.7574 31.7957 31.8288 31.455 31.8288C31.1176 31.8288 30.8513 31.7574 30.6562 31.6147C30.4643 31.4686 30.3684 31.276 30.3684 31.0369C30.3684 30.7879 30.4643 30.5987 30.6562 30.4692Z" fill="#262626"/>
<path d="M39.8389 30.2867H38.2969V35.8196H39.4711V34.4972L39.3484 31.5901L41.132 35.8196H41.9569L43.7442 31.5863L43.6216 34.4972V35.8196H44.8032V30.2867H43.2611L41.5482 34.1552L39.8389 30.2867Z" fill="#262626"/>
<path d="M47.9942 30.2867H46.8163V35.8196H47.9942V33.6194H48.7894L50.5172 35.8196H51.9329L49.7295 32.9658L51.736 30.2867H50.2943L48.5925 32.4375H47.9942V30.2867Z" fill="#262626"/>
<path fill-rule="evenodd" clip-rule="evenodd" d="M53.2699 30.2867H55.6888C56.0554 30.2867 56.3812 30.3336 56.666 30.4273C56.9534 30.521 57.1949 30.6515 57.3906 30.8187C57.5888 30.9834 57.7399 31.181 57.8439 31.4115C57.948 31.6395 58 31.8891 58 32.1601C58 32.4261 57.948 32.6681 57.8439 32.886C57.7399 33.1038 57.5888 33.2913 57.3906 33.4484C57.1949 33.6029 56.9534 33.7232 56.666 33.8094C56.3812 33.893 56.0554 33.9348 55.6888 33.9348H54.4477V35.8196H53.2699V30.2867ZM55.6888 32.9278C55.887 32.9278 56.0567 32.9088 56.1979 32.8708C56.3415 32.8328 56.458 32.7796 56.5471 32.7112C56.6388 32.6427 56.7057 32.5629 56.7478 32.4717C56.7899 32.378 56.811 32.2767 56.811 32.1677C56.811 32.0512 56.7899 31.941 56.7478 31.8371C56.7057 31.7307 56.6388 31.6383 56.5471 31.5597C56.458 31.4787 56.3415 31.4141 56.1979 31.3659C56.0567 31.3178 55.887 31.2937 55.6888 31.2937H54.4477V32.9278H55.6888Z" fill="#262626"/>
<path d="M17.5784 40.387H17.8531V41.4592L18.7962 40.387H19.1378L18.0982 41.5529L19.1675 42.8875H18.8185L17.9126 41.7441L17.8531 41.8116V42.8875H17.5784V41.8116L17.519 41.7441L16.613 42.8875H16.264L17.3333 41.5529L16.2937 40.387H16.6353L17.5784 41.4592V40.387Z" fill="#262626"/>
<path d="M21.6314 42.8875V40.9793L19.9086 43V40.387H20.1833V42.3027L21.9061 40.282V42.8875H21.6314Z" fill="#262626"/>
<path d="M23.1684 40.387H24.6758V42.8875H24.4011V40.6494H23.4431V41.9915C23.4431 42.109 23.4419 42.1977 23.4394 42.2577C23.437 42.3152 23.4171 42.3976 23.38 42.5051C23.3454 42.6101 23.2922 42.6951 23.2203 42.7601C23.109 42.8601 22.9679 42.91 22.7971 42.91C22.7575 42.91 22.708 42.9025 22.6485 42.8875V42.6251C22.6981 42.6401 22.7439 42.6476 22.7859 42.6476C22.8825 42.6476 22.9629 42.6151 23.0273 42.5501C23.0718 42.5051 23.1052 42.4414 23.1275 42.3589C23.1498 42.2739 23.1622 42.2027 23.1646 42.1452C23.1672 42.0878 23.1684 41.999 23.1684 41.8791V40.387Z" fill="#262626"/>
<path fill-rule="evenodd" clip-rule="evenodd" d="M27.7557 42.5614C27.5082 42.8088 27.2037 42.9325 26.8423 42.9325C26.4809 42.9325 26.1752 42.8088 25.9252 42.5614C25.6777 42.3139 25.5539 42.0065 25.5539 41.6391C25.5539 41.2692 25.6789 40.9618 25.929 40.7169C26.1789 40.4694 26.4834 40.3457 26.8423 40.3457C27.2012 40.3457 27.5057 40.4694 27.7557 40.7169C28.0057 40.9618 28.1308 41.2692 28.1308 41.6391C28.1308 42.0065 28.0057 42.3139 27.7557 42.5614ZM27.5552 40.9081C27.3597 40.7082 27.122 40.6081 26.8423 40.6081C26.5626 40.6081 26.3249 40.7082 26.1295 40.9081C25.9339 41.108 25.8361 41.3517 25.8361 41.6391C25.8361 41.9266 25.9339 42.1703 26.1295 42.3702C26.3249 42.5701 26.5626 42.6701 26.8423 42.6701C27.122 42.6701 27.3597 42.5701 27.5552 42.3702C27.7507 42.1703 27.8486 41.9266 27.8486 41.6391C27.8486 41.3517 27.7507 41.108 27.5552 40.9081Z" fill="#262626"/>
<path d="M30.7296 42.8875V40.9793L29.0067 43V40.387H29.2815V42.3027L31.0043 40.282V42.8875H30.7296Z" fill="#262626"/>
<path d="M29.43 39.8209L29.6899 39.7346C29.7048 39.7822 29.7271 39.8221 29.7568 39.8546C29.789 39.8846 29.8236 39.9059 29.8607 39.9183L29.9498 39.9408C29.9697 39.9434 29.9883 39.9446 30.0055 39.9446C30.0229 39.9446 30.0414 39.9434 30.0612 39.9408C30.0811 39.9359 30.1095 39.9284 30.1466 39.9183C30.1863 39.9059 30.2209 39.8846 30.2506 39.8546C30.2828 39.8221 30.3063 39.7822 30.3211 39.7346L30.581 39.8209C30.5712 39.8483 30.5563 39.8771 30.5365 39.9071C30.5192 39.9371 30.4895 39.9758 30.4474 40.0233C30.4053 40.0708 30.3459 40.1095 30.2691 40.1395C30.1925 40.1695 30.1046 40.1845 30.0055 40.1845C29.9066 40.1845 29.8187 40.1695 29.7419 40.1395C29.6652 40.1095 29.6058 40.0708 29.5637 40.0233C29.5216 39.9758 29.4907 39.9371 29.4709 39.9071C29.4536 39.8771 29.4399 39.8483 29.43 39.8209Z" fill="#262626"/>
<path d="M33.5268 40.387V41.4592L34.5813 40.387H34.9526L33.7942 41.5529L34.9897 42.8875H34.611L33.5974 41.7403L33.5268 41.8116V42.8875H33.2521V40.387H33.5268Z" fill="#262626"/>
<path fill-rule="evenodd" clip-rule="evenodd" d="M37.6459 42.5614C37.3983 42.8088 37.0939 42.9325 36.7325 42.9325C36.371 42.9325 36.0654 42.8088 35.8154 42.5614C35.5678 42.3139 35.4441 42.0065 35.4441 41.6391C35.4441 41.2692 35.569 40.9618 35.8191 40.7169C36.0691 40.4694 36.3736 40.3457 36.7325 40.3457C37.0914 40.3457 37.3958 40.4694 37.6459 40.7169C37.8959 40.9618 38.0209 41.2692 38.0209 41.6391C38.0209 42.0065 37.8959 42.3139 37.6459 42.5614ZM37.4454 40.9081C37.2498 40.7082 37.0122 40.6081 36.7325 40.6081C36.4527 40.6081 36.2151 40.7082 36.0196 40.9081C35.824 41.108 35.7263 41.3517 35.7263 41.6391C35.7263 41.9266 35.824 42.1703 36.0196 42.3702C36.2151 42.5701 36.4527 42.6701 36.7325 42.6701C37.0122 42.6701 37.2498 42.5701 37.4454 42.3702C37.6409 42.1703 37.7387 41.9266 37.7387 41.6391C37.7387 41.3517 37.6409 41.108 37.4454 40.9081Z" fill="#262626"/>
<path d="M39.0937 42.8875H38.8115L39.2236 40.2482L40.1742 42.3589L41.1432 40.2445L41.5294 42.8875H41.2472L41.0133 41.148L40.1704 42.9925L39.3387 41.148L39.0937 42.8875Z" fill="#262626"/>
<path d="M42.4736 40.387H44.293V42.8875H44.0182V40.6494H42.7484V42.8875H42.4736V40.387Z" fill="#262626"/>
<path d="M45.5557 40.387H47.0632V42.8875H46.7885V40.6494H45.8305V41.9915C45.8305 42.109 45.8293 42.1977 45.8268 42.2577C45.8243 42.3152 45.8045 42.3976 45.7674 42.5051C45.7328 42.6101 45.6795 42.6951 45.6077 42.7601C45.4963 42.8601 45.3552 42.91 45.1844 42.91C45.1448 42.91 45.0953 42.9025 45.0359 42.8875V42.6251C45.0854 42.6401 45.1313 42.6476 45.1733 42.6476C45.2698 42.6476 45.3503 42.6151 45.4147 42.5501C45.4592 42.5051 45.4926 42.4414 45.5149 42.3589C45.5372 42.2739 45.5495 42.2027 45.552 42.1452C45.5545 42.0878 45.5557 41.999 45.5557 41.8791V40.387Z" fill="#262626"/>
<path d="M49.3596 40.387V40.6494H48.3497V41.3917H49.3299V41.6541H48.3497V42.6251H49.3596V42.8875H48.0749V40.387H49.3596Z" fill="#262626"/>
<path d="M50.5122 40.387V41.4592L51.5667 40.387H51.938L50.7795 41.5529L51.9751 42.8875H51.5964L50.5827 41.7403L50.5122 41.8116V42.8875H50.2374V40.387H50.5122Z" fill="#262626"/>
<path d="M54.4967 40.5932V40.9381C54.3976 40.8381 54.29 40.7606 54.1736 40.7056C54.0326 40.6407 53.8902 40.6081 53.7467 40.6081C53.462 40.6081 53.2243 40.7094 53.0338 40.9118C52.8456 41.1117 52.7516 41.3579 52.7516 41.6504C52.7516 41.9653 52.8542 42.2139 53.0598 42.3964C53.2677 42.5789 53.4979 42.6701 53.7504 42.6701C53.9087 42.6701 54.0623 42.6314 54.2108 42.5539C54.3147 42.5014 54.41 42.4314 54.4967 42.3439V42.6888C54.2714 42.8513 54.0226 42.9325 53.7504 42.9325C53.384 42.9325 53.0783 42.8088 52.8333 42.5614C52.5906 42.3139 52.4694 42.009 52.4694 41.6466C52.4694 41.2742 52.5919 40.9643 52.837 40.7169C53.0845 40.4694 53.3939 40.3457 53.7652 40.3457C54.0375 40.3457 54.2813 40.4282 54.4967 40.5932Z" fill="#262626"/>
<defs>
<linearGradient id="paint0_linear_269_60935" x1="-0.000339753" y1="2.69117" x2="72.2977" y2="27.8026" gradientUnits="userSpaceOnUse">
<stop stop-color="#704710"/>
<stop offset="0.328125" stop-color="#CB992F"/>
<stop offset="0.411458" stop-color="#FAC73B"/>
<stop offset="0.635417" stop-color="#FAC73B"/>
<stop offset="0.71875" stop-color="#E5B336"/>
<stop offset="1" stop-color="#704710"/>
</linearGradient>
<linearGradient id="paint1_linear_269_60935" x1="-0.000339753" y1="2.69117" x2="72.2977" y2="27.8026" gradientUnits="userSpaceOnUse">
<stop stop-color="#704710"/>
<stop offset="0.328125" stop-color="#CB992F"/>
<stop offset="0.411458" stop-color="#FAC73B"/>
<stop offset="0.635417" stop-color="#FAC73B"/>
<stop offset="0.71875" stop-color="#E5B336"/>
<stop offset="1" stop-color="#704710"/>
</linearGradient>
<linearGradient id="paint2_linear_269_60935" x1="-0.000339753" y1="2.69117" x2="72.2977" y2="27.8026" gradientUnits="userSpaceOnUse">
<stop stop-color="#704710"/>
<stop offset="0.328125" stop-color="#CB992F"/>
<stop offset="0.411458" stop-color="#FAC73B"/>
<stop offset="0.635417" stop-color="#FAC73B"/>
<stop offset="0.71875" stop-color="#E5B336"/>
<stop offset="1" stop-color="#704710"/>
</linearGradient>
<linearGradient id="paint3_linear_269_60935" x1="-0.000339753" y1="2.69117" x2="72.2977" y2="27.8026" gradientUnits="userSpaceOnUse">
<stop stop-color="#704710"/>
<stop offset="0.328125" stop-color="#CB992F"/>
<stop offset="0.411458" stop-color="#FAC73B"/>
<stop offset="0.635417" stop-color="#FAC73B"/>
<stop offset="0.71875" stop-color="#E5B336"/>
<stop offset="1" stop-color="#704710"/>
</linearGradient>
<linearGradient id="paint4_linear_269_60935" x1="-0.000339753" y1="2.69117" x2="72.2977" y2="27.8026" gradientUnits="userSpaceOnUse">
<stop stop-color="#704710"/>
<stop offset="0.328125" stop-color="#CB992F"/>
<stop offset="0.411458" stop-color="#FAC73B"/>
<stop offset="0.635417" stop-color="#FAC73B"/>
<stop offset="0.71875" stop-color="#E5B336"/>
<stop offset="1" stop-color="#704710"/>
</linearGradient>
<linearGradient id="paint5_linear_269_60935" x1="-0.000339753" y1="2.69117" x2="72.2977" y2="27.8026" gradientUnits="userSpaceOnUse">
<stop stop-color="#704710"/>
<stop offset="0.328125" stop-color="#CB992F"/>
<stop offset="0.411458" stop-color="#FAC73B"/>
<stop offset="0.635417" stop-color="#FAC73B"/>
<stop offset="0.71875" stop-color="#E5B336"/>
<stop offset="1" stop-color="#704710"/>
</linearGradient>
<linearGradient id="paint6_linear_269_60935" x1="-0.000339753" y1="2.69117" x2="72.2977" y2="27.8026" gradientUnits="userSpaceOnUse">
<stop stop-color="#704710"/>
<stop offset="0.328125" stop-color="#CB992F"/>
<stop offset="0.411458" stop-color="#FAC73B"/>
<stop offset="0.635417" stop-color="#FAC73B"/>
<stop offset="0.71875" stop-color="#E5B336"/>
<stop offset="1" stop-color="#704710"/>
</linearGradient>
</defs>
</svg>
