<svg width="42" height="42" viewBox="0 0 42 42" fill="none" xmlns="http://www.w3.org/2000/svg">
<path fill-rule="evenodd" clip-rule="evenodd" d="M7.23242 19.846C7.23242 17.2156 9.33033 15.0823 11.9182 15.0823C14.5061 15.0823 16.6041 17.2156 16.6041 19.846C16.6041 22.4764 14.5061 24.6097 11.9182 24.6097C9.33033 24.6097 7.23242 22.4764 7.23242 19.846ZM11.9182 17.0844C10.4207 17.0844 9.20612 18.3202 9.20612 19.846C9.20612 21.3717 10.4207 22.6075 11.9182 22.6075C13.4158 22.6075 14.6304 21.3717 14.6304 19.846C14.6304 18.3202 13.4158 17.0844 11.9182 17.0844Z" fill="#FFC527"/>
<path fill-rule="evenodd" clip-rule="evenodd" d="M12.8498 0.307243C12.415 -0.100088 11.7525 -0.100081 11.3109 0.293442L0.655611 9.93821C-0.138013 10.6562 0.365756 11.9818 1.42162 11.9818H2.91919V39.9979H0.986849C0.441664 39.9979 0 40.4466 0 40.9989C0 41.5512 0.441664 42 0.986849 42H3.74042C4.37531 42 4.89288 41.4753 4.89288 40.8263V34.599H7.23236V40.9161C7.23236 41.4684 7.67402 41.9172 8.21921 41.9172C8.76439 41.9172 9.20606 41.4684 9.20606 40.9161V39.5767H14.6303V40.9161C14.6303 41.4684 15.072 41.9172 15.6171 41.9172C16.1623 41.9172 16.604 41.4684 16.604 40.9161V34.599H19.3576V40.8263C19.3576 41.4753 19.8751 42 20.51 42H23.2636C23.8087 42 24.2504 41.5512 24.2504 40.9989C24.2504 40.4466 23.8087 39.9979 23.2636 39.9979H21.3313V29.4625H23.8364C24.0917 29.4625 24.3194 29.6075 24.4298 29.8422L29.509 40.5433C29.8334 41.2337 30.5235 41.6686 31.2757 41.6686H38.8186C40.5783 41.6686 42 40.2188 42 38.4307C42 36.6426 40.5714 35.1928 38.8186 35.1928H34.1673L29.5781 25.1821C28.743 23.3525 26.9418 22.1858 24.9612 22.1858H21.3313V11.9818H22.4285C23.4775 11.9818 23.9813 10.67 23.2083 9.94512L12.8636 0.300353L12.8498 0.307243ZM21.3244 24.1948V27.4534H23.8294C24.837 27.4534 25.7617 28.0403 26.1965 28.9654L31.2688 39.6596H38.8048C39.4742 39.6596 40.0194 39.1073 40.0194 38.4238C40.0194 37.7403 39.4742 37.188 38.8048 37.188H33.974C33.3184 37.188 32.718 36.8014 32.442 36.1938L27.7768 26.0174C27.2662 24.899 26.162 24.181 24.9474 24.181H21.3174L21.3244 24.1948ZM14.6303 37.5746V34.6059H9.20606V37.5746H14.6303ZM14.6303 32.5969V29.2968H9.20606V32.5969H14.6303ZM7.23236 29.2968H4.89288V32.5969H7.23236V29.2968ZM16.5971 32.5969H19.3507V29.2968H16.5971V32.5969ZM4.88598 27.2878V11.9818H19.3507V27.2878H4.88598ZM3.57475 9.97964L12.0631 2.30248L20.303 9.97964H3.57475Z" fill="#FFC527"/>
</svg>
