<svg width="50" height="42" viewBox="0 0 50 42" fill="none" xmlns="http://www.w3.org/2000/svg">
<path d="M49.5135 10.2437L44.8372 0.55843C44.671 0.216695 44.3221 0 43.9484 0H6.04764C5.66556 0 5.32506 0.216695 5.15894 0.55843L0.482601 10.2437C-0.954354 13.2109 0.972652 16.6867 4.21203 17.0617V41.0081C4.21203 41.5582 4.6522 42 5.20041 42H44.8039C45.3521 42 45.7923 41.5582 45.7923 41.0081V17.0617C49.0234 16.6867 50.9505 13.2109 49.5218 10.2437H49.5135ZM36.9048 1.98373L39.8867 11.2522C40.5013 13.1609 39.081 15.1113 37.0875 15.1113C35.6339 15.1113 34.413 14.0695 34.1804 12.6275L32.4694 1.98373H36.9048ZM25.9823 1.98373H30.4676C30.6171 2.91725 31.8381 10.4854 32.0125 11.5773C32.3115 13.4277 30.8829 15.103 29.0223 15.103C27.3528 15.103 25.9906 13.7361 25.9906 12.0607V1.98373H25.9823ZM17.9752 11.5773L19.5201 1.98373H24.0054V12.0607C24.0054 13.7361 22.6432 15.103 20.9737 15.103C19.1048 15.103 17.6845 13.4277 17.9835 11.5773H17.9752ZM17.5101 1.98373L15.799 12.6275C15.5664 14.0611 14.3454 15.1113 12.9002 15.1113C10.8984 15.1113 9.48637 13.1609 10.101 11.2522L13.0829 1.98373H17.5184H17.5101ZM4.75195 15.103C2.70034 15.103 1.36305 12.9526 2.2518 11.1022L6.65397 1.97539H10.9898L7.38491 13.1693C7.01114 14.3195 5.95632 15.0947 4.74363 15.0947L4.75195 15.103ZM38.8484 40.0079H29.8446V24.0881H38.8484V40.0079ZM43.7989 40.0079H40.8253V23.0962C40.8253 22.5461 40.3851 22.1044 39.8369 22.1044H28.8479C28.2997 22.1044 27.8595 22.5461 27.8595 23.0962V40.0079H6.17225V16.8617C7.25205 16.5199 8.16571 15.8031 8.76375 14.8363C9.73557 16.3282 11.2722 17.0867 12.8835 17.0867C14.4949 17.0867 15.9984 16.2699 16.8955 14.9946C17.8839 16.3782 19.4122 17.0867 20.9571 17.0867C22.6101 17.0867 24.0636 16.2699 24.9773 15.028C25.8909 16.2699 27.3445 17.0867 28.9974 17.0867C30.5423 17.0867 32.0707 16.3782 33.0591 14.9946C33.9561 16.2699 35.418 17.0867 37.0709 17.0867C38.7238 17.0867 40.219 16.3282 41.1908 14.8363C41.7888 15.8031 42.7108 16.5283 43.7823 16.8617V40.0079H43.7989ZM45.2275 15.103C44.0231 15.103 42.9599 14.3278 42.5861 13.1776L38.9813 1.98373H43.3171L47.7277 11.1105C48.6247 12.9609 47.2791 15.1113 45.2275 15.1113V15.103Z" fill="#FFC527"/>
<path d="M23.0174 20.605H10.2093C9.66112 20.605 9.22095 21.0467 9.22095 21.5968V33.6742C9.22095 34.2243 9.66112 34.6661 10.2093 34.6661H23.0174C23.5656 34.6661 24.0057 34.2243 24.0057 33.6742V21.5968C24.0057 21.0467 23.5656 20.605 23.0174 20.605ZM15.6249 32.6824H11.1978V28.6316H15.6249V32.6824ZM15.6249 26.6478H11.1978V22.597H15.6249V26.6478ZM22.0289 32.6824H17.6018V28.6316H22.0289V32.6824ZM22.0289 26.6478H17.6018V22.597H22.0289V26.6478Z" fill="#FFC527"/>
</svg>
