<svg width="42" height="44" viewBox="0 0 42 44" fill="none" xmlns="http://www.w3.org/2000/svg">
<path d="M41.2423 23.2486C41.0002 23.2486 40.7581 23.1354 40.6097 22.924L39.0869 20.6888L37.564 22.924C37.3375 23.2562 36.8689 23.3543 36.5175 23.1278C36.1661 22.9088 36.0724 22.4558 36.2988 22.116L38.4543 18.9521C38.7354 18.5443 39.4383 18.5443 39.7116 18.9521L41.8671 22.116C42.0936 22.4558 41.9999 22.9013 41.6484 23.1278C41.5235 23.2109 41.3751 23.2486 41.2345 23.2486H41.2423Z" fill="#FFC527"/>
<path d="M39.0869 29.5699C38.837 29.5699 38.5949 29.4491 38.4543 29.2453L36.2988 26.0813C36.0724 25.7415 36.1661 25.296 36.5175 25.0695C36.8611 24.8505 37.3297 24.9411 37.564 25.2734L39.0869 27.5085L40.6097 25.2734C40.8362 24.9336 41.3048 24.8429 41.6562 25.0695C42.0077 25.2884 42.1014 25.7415 41.8749 26.0813L39.7194 29.2453C39.5789 29.4491 39.3446 29.5699 39.0869 29.5699Z" fill="#FFC527"/>
<path d="M32.9019 43.9924H7.41134C6.99743 43.9924 6.65381 43.6678 6.65381 43.26V7.61871C6.65381 7.2185 6.98962 6.88623 7.41134 6.88623H32.9019C33.3158 6.88623 33.6594 7.21095 33.6594 7.61871V43.26C33.6594 43.6602 33.3236 43.9924 32.9019 43.9924ZM8.16105 42.5351H32.1443V8.35115H8.16105V42.5351Z" fill="#FFC527"/>
<path d="M20.1565 43.9924C19.7425 43.9924 19.3989 43.6678 19.3989 43.26V7.61871C19.3989 7.2185 19.7347 6.88623 20.1565 6.88623C20.5782 6.88623 20.914 7.21095 20.914 7.61871V43.26C20.914 43.6602 20.5782 43.9924 20.1565 43.9924Z" fill="#FFC527"/>
<path d="M41.2425 43.9919H0.757532C0.343623 43.9919 0 43.6672 0 43.2595C0 42.8517 0.335814 42.527 0.757532 42.527H41.2425C41.6564 42.527 42 42.8517 42 43.2595C42 43.6672 41.6642 43.9919 41.2425 43.9919Z" fill="#FFC527"/>
<path d="M36.9316 43.9923H3.38156C2.96765 43.9923 2.62402 43.6676 2.62402 43.2598V5.38338C2.62402 3.31437 4.36556 1.63049 6.50539 1.63049H13.5965C14.0104 1.63049 14.354 1.95517 14.354 2.36293C14.354 2.8613 14.7758 3.26151 15.2834 3.26151H25.0298C25.5452 3.26151 25.9591 2.85375 25.9591 2.36293C25.9591 1.96272 26.2949 1.63049 26.7166 1.63049H33.8077C35.9476 1.63049 37.6891 3.31437 37.6891 5.38338V14.2786C37.6891 14.6788 37.3533 15.0111 36.9316 15.0111C36.5098 15.0111 36.174 14.6864 36.174 14.2786V5.38338C36.174 4.12234 35.1119 3.09541 33.8077 3.09541H27.3492C27.029 4.0393 26.1075 4.72643 25.0298 4.72643H15.2834C14.1978 4.72643 13.2841 4.0393 12.9639 3.09541H6.50539C5.20119 3.09541 4.13909 4.12234 4.13909 5.38338V42.5349H36.1819V33.9191C36.1819 33.5189 36.5177 33.1866 36.9394 33.1866C37.3611 33.1866 37.6969 33.5113 37.6969 33.9191V43.2674C37.6969 43.6676 37.3611 43.9998 36.9394 43.9998L36.9316 43.9923Z" fill="#FFC527"/>
<path d="M25.0296 4.72701H15.2833C13.94 4.72701 12.8389 3.66985 12.8389 2.3635C12.8389 1.05716 13.9322 0 15.2833 0H25.0296C26.3729 0 27.474 1.05716 27.474 2.3635C27.474 3.66985 26.3807 4.72701 25.0296 4.72701ZM15.2833 1.46492C14.7678 1.46492 14.3539 1.87268 14.3539 2.3635C14.3539 2.85433 14.7757 3.26209 15.2833 3.26209H25.0296C25.5451 3.26209 25.959 2.85433 25.959 2.3635C25.959 1.87268 25.5373 1.46492 25.0296 1.46492H15.2833Z" fill="#FFC527"/>
</svg>
