<svg width="50" height="42" viewBox="0 0 50 42" fill="none" xmlns="http://www.w3.org/2000/svg">
<path d="M49.0982 39.3596H47.81V12.065C47.81 11.3333 47.4718 10.7077 46.9968 10.5486L44.4686 9.6791C40.8213 8.41723 37.0531 7.96128 33.2689 8.31121C32.9468 8.34302 32.5604 8.38544 32.1498 8.44907V4.49374C32.1498 3.76207 31.8116 3.14704 31.3366 2.97738L28.1159 1.86398C23.5105 0.273379 18.7681 -0.29923 14.0419 0.146137C11.9404 0.347612 9.86309 0.750568 7.85826 1.34439C7.31075 1.50345 6.75521 1.6731 6.21576 1.86398L2.99515 2.97738C2.51205 3.13644 2.18193 3.76207 2.18193 4.49374V39.3702H0.893708C0.402565 39.3702 0 39.9534 0 40.6851C0 41.4168 0.402565 42 0.893708 42H49.1063C49.5974 42 50 41.4168 50 40.6851C50 39.9534 49.5974 39.3702 49.1063 39.3702L49.0982 39.3596ZM8.92106 3.7409C10.322 3.35916 11.7552 3.08341 13.2045 2.90314V6.49791H8.92106V3.75151V3.7409ZM8.92106 9.11712H13.2045V12.2241H8.92106V9.11712ZM8.92106 14.8538H13.2045V17.9608H8.92106V14.8538ZM8.92106 20.5906H13.2045V23.6976H8.92106V20.5906ZM8.92106 26.3274H13.2045V29.4343H8.92106V26.3274ZM30.3623 39.3702H3.9694V5.34211L6.61834 4.43012C6.78742 4.3771 6.96456 4.32412 7.13365 4.2711V34.5667C7.13365 35.2877 7.53621 35.8816 8.02735 35.8816C8.5185 35.8816 8.92106 35.2983 8.92106 34.5667V32.0747H13.2045V34.5667C13.2045 35.2877 13.607 35.8816 14.0982 35.8816C14.5893 35.8816 14.992 35.2983 14.992 34.5667V2.7229C19.2754 2.42598 23.5427 2.99858 27.7134 4.43012L30.3704 5.34211V39.3702H30.3623ZM46.0225 39.3702H32.1417V11.0894C32.5926 11.0258 33.0274 10.9728 33.3816 10.941C36.9887 10.6123 40.5797 11.047 44.058 12.2452L46.0225 12.9239V39.3808V39.3702Z" fill="#FFC527"/>
</svg>
