<svg width="42" height="42" viewBox="0 0 42 42" fill="none" xmlns="http://www.w3.org/2000/svg">
<path fill-rule="evenodd" clip-rule="evenodd" d="M31.6242 5.25073C30.9891 5.25073 30.4783 5.76148 30.4783 6.39648V13.6576C30.4783 14.2029 30.92 14.6446 31.4585 14.6446C31.997 14.6446 32.4388 14.2029 32.4388 13.6576V12.2634H33.8885C35.8145 12.2634 37.3816 10.6966 37.3816 8.75703C37.3816 6.81751 35.8145 5.25073 33.8885 5.25073H31.6242ZM33.8885 10.2963H32.4388V7.21785H33.8885C34.7376 7.21785 35.421 7.90806 35.421 8.75703C35.421 9.606 34.7376 10.2963 33.8885 10.2963Z" fill="#FFC527"/>
<path fill-rule="evenodd" clip-rule="evenodd" d="M24.5137 1.96716C24.5137 0.876607 25.3904 0 26.4742 0H40.0393C41.1231 0 41.9999 0.883509 41.9999 1.96716V18.0424C41.9999 19.133 41.1231 20.0095 40.0393 20.0095H34.0748V39.9431H35.7109C36.2494 39.9431 36.6912 40.3849 36.6912 40.9301C36.6912 41.4754 36.2494 41.9172 35.7109 41.9172H30.4782C29.9397 41.9172 29.4979 41.4754 29.4979 40.9301C29.4979 40.3849 29.9397 39.9431 30.4782 39.9431H32.1143V20.0095H26.4742C25.3904 20.0095 24.5137 19.1261 24.5137 18.0424V1.96716ZM40.0393 1.96716H26.4742V18.0424H40.0393V1.96716Z" fill="#FFC527"/>
<path d="M10.7071 30.3501C10.1687 30.3501 9.72681 30.7918 9.72681 31.3371C9.72681 31.8824 10.1687 32.3241 10.7071 32.3241H16.0986C16.6371 32.3241 17.0789 31.8824 17.0789 31.3371C17.0789 30.7918 16.6371 30.3501 16.0986 30.3501H10.7071Z" fill="#FFC527"/>
<path fill-rule="evenodd" clip-rule="evenodd" d="M5.37774 18.5885L3.25146 24.2483L1.83632 22.8265C1.45663 22.4399 0.835323 22.4399 0.448735 22.8265C0.0690504 23.213 0.0690504 23.8342 0.448735 24.2207L1.60845 25.3803C0.655789 25.8704 0 26.8643 0 28.01V38.2253C0 40.3098 1.68439 42.0009 3.7623 42.0009C5.84021 42.0009 7.52468 40.3098 7.52468 38.2253V36.6654H18.9635V38.2253C18.9635 40.3098 20.648 42.0009 22.7259 42.0009C24.8038 42.0009 26.4882 40.3098 26.4882 38.2253V28.01C26.4882 26.9678 25.9498 26.0567 25.1421 25.5253L26.4467 24.2138C26.8264 23.8273 26.8264 23.2061 26.4467 22.8196C26.067 22.433 25.4458 22.433 25.0592 22.8196L23.7683 24.1172L21.214 18.5057C21.0276 18.0984 20.6203 17.8362 20.1716 17.8362H6.45462C5.97829 17.8362 5.55033 18.133 5.38465 18.5816L5.37774 18.5885ZM7.01384 19.8171L5.03949 25.0697H22.0286L19.64 19.8171H7.01384ZM1.96053 36.6723H5.55724V38.2322C5.55724 39.2261 4.74948 40.0337 3.7623 40.0337C2.77512 40.0337 1.96744 39.2261 1.96744 38.2322V36.6723H1.96053ZM1.96053 34.7052V28.017C1.96053 27.4717 2.40238 27.0299 2.94084 27.0299H23.5335C24.072 27.0299 24.5138 27.4717 24.5138 28.017V34.7052H1.96053ZM20.9172 36.6723H24.5138V38.2322C24.5138 39.2261 23.7062 40.0337 22.719 40.0337C21.7318 40.0337 20.924 39.2261 20.924 38.2322V36.6723H20.9172Z" fill="#FFC527"/>
</svg>
