<svg width="42" height="42" viewBox="0 0 42 42" fill="none" xmlns="http://www.w3.org/2000/svg">
<path fill-rule="evenodd" clip-rule="evenodd" d="M4.6866 2.93987C4.6866 1.31811 5.98423 0 7.58554 0H35.4981C36.3885 0 37.1132 0.731512 37.1132 1.63555V3.38846L40.1088 1.78049C40.9647 1.31812 42 1.95301 42 2.93296V13.2708C42 14.2508 40.9785 14.8788 40.1226 14.4371L37.1132 12.8705V14.4854C37.1132 15.3894 36.3885 16.1209 35.4981 16.1209H25.0343C24.6685 18.2741 22.9982 19.9787 20.8792 20.372V25.2373C20.8792 25.7135 20.5893 26.1344 20.1545 26.3069L1.93262 33.4013V41.0201C1.93262 41.5583 1.49778 42 0.966306 42C0.434836 42 0 41.5583 0 41.0201V24.4437C0 23.9054 0.434836 23.4637 0.966306 23.4637C1.49778 23.4637 1.93262 23.9054 1.93262 24.4437V31.3033L18.9397 24.6852V20.3651C16.8552 19.9441 15.2263 18.2603 14.8674 16.1347H7.58554C5.98423 16.1347 4.6866 14.8166 4.6866 13.1949V2.95369V2.93987ZM35.1737 14.161H24.9998C24.5167 11.7802 22.4391 9.9928 19.9474 9.9928C17.4557 9.9928 15.3781 11.7802 14.895 14.161H7.57863C7.04716 14.161 6.61233 13.7194 6.61233 13.1811V2.93987C6.61233 2.40158 7.04716 1.95993 7.57863 1.95993H35.1668V14.161H35.1737ZM16.7241 15.2238C16.7241 13.4157 18.1666 11.9527 19.9474 11.9527C21.7282 11.9527 23.1708 13.4157 23.1708 15.2238C23.1708 17.0319 21.7282 18.4949 19.9474 18.4949C18.1666 18.4949 16.7241 17.0319 16.7241 15.2238ZM40.0605 12.2011L37.1063 10.6622V5.59677L40.0605 4.00953V12.1942V12.2011Z" fill="#FFC527"/>
</svg>
