<svg width="46" height="42" viewBox="0 0 46 42" fill="none" xmlns="http://www.w3.org/2000/svg">
<path d="M42.4465 27.5306H40.968C40.4337 27.5306 39.9973 27.0964 39.9973 26.5648C39.9973 26.0331 40.4337 25.5989 40.968 25.5989H42.4465C43.3371 25.5989 44.0585 24.8812 44.0585 23.9951V3.53546C44.0585 2.64938 43.3371 1.93165 42.4465 1.93165H3.55352C2.66291 1.93165 1.94152 2.64938 1.94152 3.53546V23.9951C1.94152 24.8812 2.66291 25.5989 3.55352 25.5989H5.03197C5.56633 25.5989 6.0027 26.0331 6.0027 26.5648C6.0027 27.0964 5.56633 27.5306 5.03197 27.5306H3.55352C1.59418 27.5306 0 25.9445 0 23.9951V3.53546C0 1.58608 1.59418 0 3.55352 0H42.4465C44.4058 0 46 1.58608 46 3.53546V23.9951C46 25.9445 44.4058 27.5306 42.4465 27.5306Z" fill="#FFC527"/>
<path d="M8.91518 42.0003C8.63018 42.0003 8.35412 41.8762 8.15818 41.6459C6.41259 39.4927 6.41259 36.3737 8.15818 34.2205C9.33379 32.7673 9.33379 30.6673 8.15818 29.2142L8.06017 29.099C6.31458 26.9458 6.31458 23.8268 8.06017 21.6736L8.15818 21.5584C9.33379 20.1052 9.33379 18.0052 8.15818 16.552C7.81975 16.1356 7.89097 15.533 8.30065 15.1963C8.71924 14.8596 9.32488 14.9305 9.66331 15.3381C11.4089 17.4913 11.4089 20.6103 9.66331 22.7635L9.5653 22.8786C8.3897 24.3318 8.3897 26.4319 9.5653 27.885L9.66331 28.0002C11.4089 30.1534 11.4089 33.2724 9.66331 35.4256C8.48771 36.8788 8.48771 38.9788 9.66331 40.4319C10.0017 40.8484 9.93047 41.451 9.52079 41.7877C9.34266 41.9294 9.12892 42.0003 8.91518 42.0003Z" fill="#FFC527"/>
<path d="M15.9774 42.0003C15.6924 42.0003 15.4163 41.8762 15.2204 41.6459C13.4748 39.4927 13.4748 36.3737 15.2204 34.2205C16.396 32.7673 16.396 30.6673 15.2204 29.2142L15.1224 29.099C13.3768 26.9458 13.3768 23.8268 15.1224 21.6736L15.2204 21.5584C16.396 20.1052 16.396 18.0052 15.2204 16.552C14.882 16.1356 14.9532 15.533 15.3629 15.1963C15.7814 14.8596 16.3871 14.9305 16.7255 15.3381C18.4711 17.4913 18.4711 20.6103 16.7255 22.7635L16.6276 22.8786C15.452 24.3318 15.452 26.4319 16.6276 27.885L16.7255 28.0002C18.4711 30.1534 18.4711 33.2724 16.7255 35.4256C15.5499 36.8788 15.5499 38.9788 16.7255 40.4319C17.0639 40.8484 16.9927 41.451 16.583 41.7877C16.4049 41.9294 16.1911 42.0003 15.9774 42.0003Z" fill="#FFC527"/>
<path d="M23.0492 42.0003C22.7642 42.0003 22.4881 41.8762 22.2922 41.6459C20.5466 39.4927 20.5466 36.3737 22.2922 34.2205C23.4678 32.7673 23.4678 30.6673 22.2922 29.2142L22.1942 29.099C20.4486 26.9458 20.4486 23.8268 22.1942 21.6736L22.2922 21.5584C23.4678 20.1052 23.4678 18.0052 22.2922 16.552C21.9537 16.1356 22.025 15.533 22.4346 15.1963C22.8532 14.8596 23.4589 14.9305 23.7973 15.3381C25.5429 17.4913 25.5429 20.6103 23.7973 22.7635L23.6993 22.8786C22.5237 24.3318 22.5237 26.4319 23.6993 27.885L23.7973 28.0002C25.5429 30.1534 25.5429 33.2724 23.7973 35.4256C22.6217 36.8788 22.6217 38.9788 23.7973 40.4319C24.1357 40.8484 24.0644 41.451 23.6548 41.7877C23.4766 41.9294 23.2629 42.0003 23.0492 42.0003Z" fill="#FFC527"/>
<path d="M30.1205 42.0003C29.8355 42.0003 29.5594 41.8762 29.3635 41.6459C27.6179 39.4927 27.6179 36.3737 29.3635 34.2205C30.5391 32.7673 30.5391 30.6673 29.3635 29.2142L29.2655 29.099C27.5199 26.9458 27.5199 23.8268 29.2655 21.6736L29.3635 21.5584C30.5391 20.1052 30.5391 18.0052 29.3635 16.552C29.0251 16.1356 29.0963 15.533 29.506 15.1963C29.9246 14.8596 30.5302 14.9305 30.8686 15.3381C32.6142 17.4913 32.6142 20.6103 30.8686 22.7635L30.7706 22.8786C29.595 24.3318 29.595 26.4319 30.7706 27.885L30.8686 28.0002C32.6142 30.1534 32.6142 33.2724 30.8686 35.4256C29.693 36.8788 29.693 38.9788 30.8686 40.4319C31.2071 40.8484 31.1358 41.451 30.7261 41.7877C30.548 41.9294 30.3342 42.0003 30.1205 42.0003Z" fill="#FFC527"/>
<path d="M37.1829 42.0003C36.8979 42.0003 36.6219 41.8762 36.4259 41.6459C34.6804 39.4927 34.6804 36.3737 36.4259 34.2205C37.6016 32.7673 37.6016 30.6673 36.4259 29.2142L36.328 29.099C34.5824 26.9458 34.5824 23.8268 36.328 21.6736L36.4259 21.5584C37.6016 20.1052 37.6016 18.0052 36.4259 16.552C36.0875 16.1356 36.1587 15.533 36.5684 15.1963C36.987 14.8596 37.5926 14.9305 37.9311 15.3381C39.6767 17.4913 39.6767 20.6103 37.9311 22.7635L37.8331 22.8786C36.6575 24.3318 36.6575 26.4319 37.8331 27.885L37.9311 28.0002C39.6767 30.1534 39.6767 33.2724 37.9311 35.4256C36.7555 36.8788 36.7555 38.9788 37.9311 40.4319C38.2695 40.8484 38.1982 41.451 37.7886 41.7877C37.6104 41.9294 37.3967 42.0003 37.1829 42.0003Z" fill="#FFC527"/>
<path d="M39.8371 6.813H6.16317C5.62881 6.813 5.19238 6.37885 5.19238 5.8472C5.19238 5.31555 5.62881 4.88135 6.16317 4.88135H39.8371C40.3715 4.88135 40.8079 5.31555 40.8079 5.8472C40.8079 6.37885 40.3715 6.813 39.8371 6.813Z" fill="#FFC527"/>
<path d="M39.8371 11.5376H6.16317C5.62881 11.5376 5.19238 11.1034 5.19238 10.5718C5.19238 10.0401 5.62881 9.60596 6.16317 9.60596H39.8371C40.3715 9.60596 40.8079 10.0401 40.8079 10.5718C40.8079 11.1034 40.3715 11.5376 39.8371 11.5376Z" fill="#FFC527"/>
</svg>
