<svg width="53" height="42" viewBox="0 0 53 42" fill="none" xmlns="http://www.w3.org/2000/svg">
<path d="M26.5 2.44489C21.4238 2.44489 17.316 6.835 17.316 12.2513H15.02C15.02 5.48763 20.1547 0 26.5 0C32.8453 0 37.98 5.48763 37.98 12.2513H35.684C35.684 6.835 31.5679 2.44489 26.5 2.44489Z" fill="#FFC527"/>
<path d="M26.4999 8.90388C24.7716 8.90388 23.369 10.4029 23.369 12.25H21.073C21.073 9.05557 23.5026 6.45898 26.4999 6.45898C29.4972 6.45898 31.9268 9.05557 31.9268 12.25H29.6308C29.6308 10.4029 28.2282 8.90388 26.4999 8.90388Z" fill="#FFC527"/>
<path d="M25.3562 11.8037V20.3252H7.90663C7.17191 20.3252 6.5708 20.9677 6.5708 21.7529V27.178H8.8668V22.779H25.3562V27.4011H27.6522V22.779H44.0916V27.178H46.3876V21.7529C46.3876 20.9677 45.7864 20.3252 45.0517 20.3252H27.6606V11.8037H25.3646H25.3562Z" fill="#FFC527"/>
<path d="M4.06592 34.6494H6.15319V36.8802H4.06592V34.6494Z" fill="#FFC527"/>
<path d="M11.3715 34.6494H9.28418V36.8802H11.3715V34.6494Z" fill="#FFC527"/>
<path fill-rule="evenodd" clip-rule="evenodd" d="M1.52785 29.6326C0.684589 29.6326 0 30.3643 0 31.2655V40.367C0 41.2682 0.684589 41.9999 1.52785 41.9999H13.9095C14.7528 41.9999 15.4375 41.2682 15.4375 40.367V31.2655C15.4375 30.3643 14.7528 29.6326 13.9095 29.6326H1.52785ZM2.296 39.5461V32.0775H13.1498V39.5461H2.296Z" fill="#FFC527"/>
<path d="M24.9386 34.6494H22.8513V36.8802H24.9386V34.6494Z" fill="#FFC527"/>
<path d="M28.0696 34.6494H30.1569V36.8802H28.0696V34.6494Z" fill="#FFC527"/>
<path fill-rule="evenodd" clip-rule="evenodd" d="M18.7769 31.2657C18.7769 30.3645 19.4614 29.6328 20.3047 29.6328H32.6864C33.5296 29.6328 34.2143 30.3645 34.2143 31.2657V40.3672C34.2143 41.2684 33.5296 42.0001 32.6864 42.0001H20.3047C19.4614 42.0001 18.7769 41.2684 18.7769 40.3672V31.2657ZM21.0729 32.0778V39.5463H31.9267V32.0778H21.0729Z" fill="#FFC527"/>
<path d="M41.6287 34.6494H43.7159V36.8802H41.6287V34.6494Z" fill="#FFC527"/>
<path d="M48.9337 34.6494H46.8464V36.8802H48.9337V34.6494Z" fill="#FFC527"/>
<path fill-rule="evenodd" clip-rule="evenodd" d="M39.0903 29.6328C38.2471 29.6328 37.5625 30.3645 37.5625 31.2657V40.3672C37.5625 41.2684 38.2471 42.0001 39.0903 42.0001H51.472C52.3153 42.0001 53 41.2684 53 40.3672V31.2657C53 30.3645 52.3153 29.6328 51.472 29.6328H39.0903ZM39.8585 39.5463V32.0778H50.7123V39.5463H39.8585Z" fill="#FFC527"/>
</svg>
